<?xml version="1.0" encoding="UTF-8" standalone="no"?> <!-- Created with Vectornator for iOS (http://vectornator.io/) --><!DOCTYPE svg PUBLIC "-//W3C//DTD SVG 1.1//EN" "http://www.w3.org/Graphics/SVG/1.1/DTD/svg11.dtd">
<svg height="100%" style="fill-rule:nonzero;clip-rule:evenodd;stroke-linecap:round;stroke-linejoin:round;" xmlns:xlink="http://www.w3.org/1999/xlink" xmlns="http://www.w3.org/2000/svg" xml:space="preserve" width="100%" xmlns:vectornator="http://vectornator.io" version="1.1" viewBox="0 0 599.821 500.5">
<metadata>
<vectornator:setting key="CMYKEnabledKey" value="0"/>
<vectornator:setting key="SnapToGrid" value="0"/>
<vectornator:setting key="DimensionsVisible" value="1"/>
<vectornator:setting key="SnapToEdges" value="0"/>
<vectornator:setting key="TimeLapseWatermarkDisabled" value="0"/>
<vectornator:setting key="DisplayWhiteBackground" value="0"/>
<vectornator:setting key="DynamicGuides" value="0"/>
<vectornator:setting key="GuidesVisible" value="1"/>
<vectornator:setting key="RulersVisible" value="1"/>
<vectornator:setting key="IsolateActiveLayer" value="0"/>
<vectornator:setting key="PencilOnly" value="0"/>
<vectornator:setting key="Units" value="Points"/>
<vectornator:setting key="SnapToPoints" value="0"/>
<vectornator:setting key="doHistoryDisabled" value="0"/>
<vectornator:setting key="SnapToGuides" value="1"/>
<vectornator:setting key="OutlineMode" value="0"/>
</metadata>
<defs/>
<g id="Untitled" vectornator:layerName="Untitled">
<g opacity="1">
<g opacity="1">
<path stroke="#231e20" stroke-width="1" d="M50.7811+201.983L38.8236+202.633L33.3926+171.432L45.1596+169.743L50.7811+201.983Z" fill="none" stroke-linecap="round" opacity="1" stroke-linejoin="round"/>
<path stroke="#231e20" stroke-width="1" d="M58.5703+246.804L46.5651+247.107L39.5858+206.942L51.5195+206.292L58.5703+246.804Z" fill="none" stroke-linecap="round" opacity="1" stroke-linejoin="round"/>
<path stroke="#231e20" stroke-width="1" d="M67.4551+297.86L55.4022+297.86L47.3273+251.416L59.3325+251.134L67.4551+297.86Z" fill="none" stroke-linecap="round" opacity="1" stroke-linejoin="round"/>
<path stroke="#231e20" stroke-width="1" d="M386.127+334.963C385.079+338.882+384.102+342.476+383.221+345.681L95.3328+332.689C76.2054+331.823+60.0554+319.135+56.2205+302.181L68.464+302.181C72.037+313.224+83.0418+321.3+95.9283+321.863L141.758+323.942L181.204+325.717L260.5+329.29L333.532+332.603L369.191+334.205L386.127+334.963Z" fill="none" stroke-linecap="round" opacity="1" stroke-linejoin="round"/>
<path stroke="#231e20" stroke-width="1" d="M462.779+302.181L460.421+317.641C457.801+334.898+441.818+347.434+422.881+347.434C422.214+347.434+421.571+347.413+420.928+347.391L392.916+346.135C393.868+342.606+394.821+339.033+395.798+335.417L407.041+335.915L421.499+336.565C435.101+337.215+446.749+328.402+448.63+316.147L450.75+302.181C450.75+302.181+462.779+302.181+462.779+302.181Z" fill="none" stroke-linecap="round" opacity="1" stroke-linejoin="round"/>
<path stroke="#231e20" stroke-width="1" d="M472.037+241.152L463.414+297.86L451.409+297.86L459.984+241.434L472.037+241.152Z" fill="none" stroke-linecap="round" opacity="1" stroke-linejoin="round"/>
<path stroke="#231e20" stroke-width="1" d="M480.97+182.453L472.704+236.822L460.627+237.103L468.845+183.124L480.97+182.453Z" fill="none" stroke-linecap="round" opacity="1" stroke-linejoin="round"/>
<path stroke="#231e20" stroke-width="1" d="M490.355+120.788L481.636+178.08L469.512+178.751L478.135+122.022L490.355+120.788Z" fill="none" stroke-linecap="round" opacity="1" stroke-linejoin="round"/>
<path stroke="#231e20" stroke-width="1" d="M514.365+77.9597L502.789+87.1186C497.429+91.384+493.928+97.2735+492.951+103.682L491.021+116.349L491.021+116.371L478.802+117.605L478.802+117.583L481.136+102.21C482.518+93.2028+487.425+84.9317+494.976+78.9556L506.528+69.7968" fill="none" stroke-linecap="round" opacity="1" stroke-linejoin="round"/>
</g>
<g opacity="1">
<path stroke="#231e20" stroke-width="1" d="M430.337+180.929C429.884+182.38+429.432+183.852+428.979+185.324L423.5+185.628L377.456+188.182L336.891+190.434L294.396+192.794L255.189+194.981L215.409+197.19L172.843+199.55L132.016+201.823L90.3783+204.119L51.528+206.284L39.5942+206.933L38.4984+206.998L38.3555+206.998C37.0929+206.998+36.045+206.111+35.9735+204.963C35.902+203.772+36.8786+202.755+38.2126+202.668L38.8319+202.625L50.7894+201.975L89.9257+199.81L131.682+197.493L172.557+195.219L215.171+192.859L255.022+190.651L294.348+188.464L337.01+186.104L377.718+183.83L423.977+181.275L430.337+180.929Z" fill="none" stroke-linecap="round" opacity="1" stroke-linejoin="round"/>
<path stroke="#231e20" stroke-width="1" d="M485.051+180.063C485.123+181.254+484.122+182.271+482.812+182.336L480.978+182.445L468.854+183.116L439.079+184.762C439.531+183.289+439.984+181.817+440.436+180.366L469.521+178.742L481.645+178.071L482.526+178.028C483.884+177.963+484.956+178.872+485.051+180.063Z" fill="none" stroke-linecap="round" opacity="1" stroke-linejoin="round"/>
</g>
<g opacity="1">
<path stroke="#231e20" stroke-width="1" d="M413.162+238.242C412.758+239.693+412.329+241.144+411.924+242.594L374.336+243.504L335.629+244.435L295.039+245.409L257.213+246.34L218.077+247.293L176.059+248.289L135.803+249.263L135.803+249.285L95.309+250.259L59.3409+251.125L47.3357+251.407L45.6683+251.45L45.5253+251.45C44.2628+251.45+43.2147+250.562+43.1434+249.415C43.048+248.224+44.0485+247.185+45.3824+247.12L46.5734+247.098L58.5786+246.795L94.8564+245.929L135.47+244.933L175.773+243.959L217.839+242.962L257.046+242.01L294.992+241.1L335.724+240.105L374.574+239.173L413.162+238.242Z" fill="none" stroke-linecap="round" opacity="1" stroke-linejoin="round"/>
<path stroke="#231e20" stroke-width="1" d="M475.69+238.827C475.761+240.018+474.785+241.036+473.451+241.1L472.045+241.144L459.993+241.425L421.857+242.356C422.286+240.906+422.69+239.455+423.119+238.004L460.636+237.095L472.712+236.813L473.165+236.792C474.523+236.727+475.618+237.614+475.69+238.827Z" fill="none" stroke-linecap="round" opacity="1" stroke-linejoin="round"/>
</g>
<g opacity="1">
<path stroke="#231e20" stroke-width="1" d="M396.274+297.851C395.893+299.302+395.488+300.752+395.107+302.181L54.6484+302.181C53.4097+302.181+52.3617+301.294+52.2901+300.146C52.1949+298.955+53.1953+297.916+54.5055+297.851C54.5055+297.851+396.274+297.851+396.274+297.851Z" fill="none" stroke-linecap="round" opacity="1" stroke-linejoin="round"/>
<path stroke="#231e20" stroke-width="1" d="M466.472+299.886C466.567+301.077+465.566+302.095+464.256+302.181L404.897+302.181C405.302+300.731+405.707+299.302+406.112+297.851L463.947+297.851C465.304+297.786+466.4+298.695+466.472+299.886Z" fill="none" stroke-linecap="round" opacity="1" stroke-linejoin="round"/>
</g>
<g opacity="1">
<path stroke="#231e20" stroke-width="1" d="M450.417+120.476C449.869+121.948+449.321+123.464+448.773+125.001L429.932+126.907L380.648+131.908L338.177+136.217L293.753+140.721L253.212+144.835L212.837+148.949L169.77+153.322L128.49+157.501L72.037+163.239L71.5367+163.282C71.4653+163.304+71.3699+163.304+71.2747+163.304C70.0837+163.304+69.0595+162.481+68.9166+161.377C68.7736+160.186+69.7025+159.125+71.0127+158.995L71.8225+158.909L450.417+120.476Z" fill="none" stroke-linecap="round" opacity="1" stroke-linejoin="round"/>
<path stroke="#231e20" stroke-width="1" d="M494.913+118.138C495.055+119.328+494.103+120.389+492.816+120.519L490.363+120.758L490.363+120.779L478.143+122.013L459.111+123.94C459.659+122.403+460.207+120.888+460.755+119.437L478.81+117.596L491.03+116.362L492.269+116.232C493.579+116.081+494.77+116.947+494.913+118.138Z" fill="none" stroke-linecap="round" opacity="1" stroke-linejoin="round"/>
</g>
<path stroke="#231e20" stroke-width="1" d="M94.8481+245.938L90.3699+204.127" fill="none" stroke-linecap="round" opacity="1" stroke-linejoin="round"/>
<path stroke="#231e20" stroke-width="1" d="M102.947+321.828L100.851+302.19" fill="none" stroke-linecap="round" opacity="1" stroke-linejoin="round"/>
<path stroke="#231e20" stroke-width="1" d="M100.398+297.859L95.3007+250.268" fill="none" stroke-linecap="round" opacity="1" stroke-linejoin="round"/>
<path stroke="#231e20" stroke-width="1" d="M89.9173+199.818L85.8918+162.1" fill="none" stroke-linecap="round" opacity="1" stroke-linejoin="round"/>
<path stroke="#231e20" stroke-width="1" d="M131.674+197.502L128.482+157.51" fill="none" stroke-linecap="butt" opacity="1" stroke-linejoin="miter"/>
<path stroke="#231e20" stroke-width="1" d="M141.75+323.95L140.011+302.19" fill="none" stroke-linecap="butt" opacity="1" stroke-linejoin="miter"/>
<path stroke="#231e20" stroke-width="1" d="M139.677+297.859L135.795+249.294" fill="none" stroke-linecap="butt" opacity="1" stroke-linejoin="miter"/>
<path stroke="#231e20" stroke-width="1" d="M135.461+244.942L132.007+201.832" fill="none" stroke-linecap="butt" opacity="1" stroke-linejoin="miter"/>
<path stroke="#231e20" stroke-width="1" d="M175.764+243.967L172.835+199.558" fill="none" stroke-linecap="butt" opacity="1" stroke-linejoin="miter"/>
<path stroke="#231e20" stroke-width="1" d="M181.195+325.726L179.623+302.19" fill="none" stroke-linecap="butt" opacity="1" stroke-linejoin="miter"/>
<path stroke="#231e20" stroke-width="1" d="M179.337+297.859L176.05+248.298" fill="none" stroke-linecap="butt" opacity="1" stroke-linejoin="miter"/>
<path stroke="#231e20" stroke-width="1" d="M172.549+195.228L169.762+153.331" fill="none" stroke-linecap="butt" opacity="1" stroke-linejoin="miter"/>
<path stroke="#231e20" stroke-width="1" d="M217.831+242.971L215.401+197.198" fill="none" stroke-linecap="butt" opacity="1" stroke-linejoin="miter"/>
<path stroke="#231e20" stroke-width="1" d="M222.309+326.917L220.999+302.19" fill="none" stroke-linecap="butt" opacity="1" stroke-linejoin="miter"/>
<path stroke="#231e20" stroke-width="1" d="M220.76+297.859L218.069+247.302" fill="none" stroke-linecap="butt" opacity="1" stroke-linejoin="miter"/>
<path stroke="#231e20" stroke-width="1" d="M215.163+192.868L212.828+148.957" fill="none" stroke-linecap="butt" opacity="1" stroke-linejoin="miter"/>
<path stroke="#231e20" stroke-width="1" d="M257.038+242.018L255.18+194.99" fill="none" stroke-linecap="butt" opacity="1" stroke-linejoin="miter"/>
<path stroke="#231e20" stroke-width="1" d="M260.492+329.299L259.42+302.19" fill="none" stroke-linecap="butt" opacity="1" stroke-linejoin="miter"/>
<path stroke="#231e20" stroke-width="1" d="M259.253+297.859L257.205+246.349" fill="none" stroke-linecap="butt" opacity="1" stroke-linejoin="miter"/>
<path stroke="#231e20" stroke-width="1" d="M255.013+190.659L253.203+144.843" fill="none" stroke-linecap="butt" opacity="1" stroke-linejoin="miter"/>
<path stroke="#231e20" stroke-width="1" d="M294.983+241.109L294.388+192.803" fill="none" stroke-linecap="butt" opacity="1" stroke-linejoin="miter"/>
<path stroke="#231e20" stroke-width="1" d="M296.055+329.299L295.722+302.19" fill="none" stroke-linecap="butt" opacity="1" stroke-linejoin="miter"/>
<path stroke="#231e20" stroke-width="1" d="M295.674+297.859L295.031+245.418" fill="none" stroke-linecap="butt" opacity="1" stroke-linejoin="miter"/>
<path stroke="#231e20" stroke-width="1" d="M294.34+188.473L293.745+139.777" fill="none" stroke-linecap="butt" opacity="1" stroke-linejoin="miter"/>
<path stroke="#231e20" stroke-width="1" d="M336.883+190.443L335.715+240.113" fill="none" stroke-linecap="butt" opacity="1" stroke-linejoin="miter"/>
<path stroke="#231e20" stroke-width="1" d="M333.524+333.088L333.524+332.611L334.262+302.19" fill="none" stroke-linecap="butt" opacity="1" stroke-linejoin="miter"/>
<path stroke="#231e20" stroke-width="1" d="M335.62+244.443L334.358+297.859" fill="none" stroke-linecap="butt" opacity="1" stroke-linejoin="miter"/>
<path stroke="#231e20" stroke-width="1" d="M338.169+136.226L337.002+186.112" fill="none" stroke-linecap="butt" opacity="1" stroke-linejoin="miter"/>
<path stroke="#231e20" stroke-width="1" d="M377.448+188.191L374.566+239.182" fill="none" stroke-linecap="round" opacity="1" stroke-linejoin="round"/>
<path stroke="#231e20" stroke-width="1" d="M370.993+302.19L369.182+334.214" fill="none" stroke-linecap="round" opacity="1" stroke-linejoin="round"/>
<path stroke="#231e20" stroke-width="1" d="M374.328+243.512L371.231+297.859" fill="none" stroke-linecap="round" opacity="1" stroke-linejoin="round"/>
<path stroke="#231e20" stroke-width="1" d="M380.64+131.917L377.71+183.839" fill="none" stroke-linecap="round" opacity="1" stroke-linejoin="round"/>
<path stroke="#231e20" stroke-width="1" d="M423.492+185.636L420.443+213.481" fill="none" stroke-linecap="round" opacity="1" stroke-linejoin="round"/>
<path stroke="#231e20" stroke-width="1" d="M410.725+302.19L407.032+335.924" fill="none" stroke-linecap="round" opacity="1" stroke-linejoin="round"/>
<path stroke="#231e20" stroke-width="1" d="M414.464+268.044L411.201+297.859" fill="none" stroke-linecap="round" opacity="1" stroke-linejoin="round"/>
<path stroke="#231e20" stroke-width="1" d="M429.923+126.915L423.968+181.284" fill="none" stroke-linecap="round" opacity="1" stroke-linejoin="round"/>
<path d="M25.7068+165.073L26.281+173.423C26.3347+174.205+27.087+174.792+27.9451+174.723L69.8094+171.123C71.2613+171.005+72.3543+169.87+72.2905+168.547L71.6082+154.397C71.5389+152.959+70.1413+151.877+68.5688+152.044L34.0739+155.971C29.0674+156.502+25.3924+160.5+25.7068+165.073Z" opacity="1" fill="#ff5b19"/>
<g opacity="1">
<path stroke="#231e20" stroke-width="1" d="M503.94+66.8652C495.389+72.2349+482.884+80.5927+475.523+87.738C472.165+90.9858+467.019+102.461+460.755+119.437C460.207+120.887+459.659+122.403+459.111+123.94C453.513+139.422+447.154+158.8+440.436+180.366C439.984+181.817+439.531+183.289+439.079+184.761C433.886+201.563+428.503+219.578+423.119+238.004C422.69+239.455+422.286+240.906+421.857+242.356C419.38+250.844+416.926+259.418+414.496+267.971C414.496+267.993+414.473+268.014+414.473+268.036C411.638+278.017+408.851+287.999+406.112+297.851C405.707+299.302+405.302+300.731+404.897+302.181C401.753+313.527+398.704+324.656+395.798+335.417C394.821+339.033+393.868+342.606+392.916+346.135C391.867+350.098+390.629+354.58+389.485+358.78C388.961+360.729+388.437+362.634+387.985+364.366C387.89+364.691+387.77+364.994+387.604+365.276C386.818+366.77+385.15+367.701+383.34+367.701C382.983+367.701+382.602+367.658+382.22+367.571C380.791+367.268+379.672+366.402+379.076+365.276C378.6+364.41+378.457+363.371+378.719+362.353C378.957+361.487+379.291+360.253+379.695+358.78C380.601+355.402+381.911+350.704+383.221+345.681C384.102+342.476+385.079+338.882+386.127+334.963C388.628+325.674+391.677+314.545+395.107+302.181C395.488+300.752+395.893+299.302+396.274+297.851C400.967+280.984+406.279+262.06+411.924+242.594C412.329+241.144+412.758+239.693+413.162+238.242C415.544+230.036+417.974+221.743+420.451+213.494L420.451+213.472C423.262+203.967+426.121+194.548+428.979+185.324C429.432+183.852+429.884+182.38+430.337+180.929C436.72+160.359+443.009+141.067+448.773+125.001C449.321+123.464+449.869+121.948+450.417+120.476C457.777+100.426+464.161+86.0924+468.568+81.8052C477.381+73.2742+492.292+63.5524+501.058+58.161" fill="none" stroke-linecap="round" opacity="1" stroke-linejoin="round"/>
<path stroke="#231e20" stroke-width="1" d="M501.058+58.161C504.965+55.7576+507.632+54.1986+507.966+54.0038C510.181+52.7263+513.135+53.3109+514.54+55.3246C515.946+57.3599+515.302+60.0231+513.063+61.3223C512.968+61.3655+509.205+63.5524+503.94+66.8652" fill="none" stroke-linecap="round" opacity="1" stroke-linejoin="round"/>
</g>
<path stroke="#231e20" stroke-width="1" d="M379.076+365.276L204.928+365.276C202.951+365.276+201.355+363.825+201.355+362.028C201.355+360.253+202.951+358.78+204.928+358.78L379.695+358.78C379.291+360.253+378.957+361.487+378.719+362.353C378.457+363.37+378.6+364.41+379.076+365.276Z" fill="none" stroke-linecap="round" opacity="1" stroke-linejoin="round"/>
<path stroke="#231e20" stroke-width="1" d="M438.174+434.185L417.474+434.076" fill="none" stroke-linecap="round" opacity="1" stroke-linejoin="round"/>
<path stroke="#231e20" stroke-width="1" d="M435.792+427.667L415.426+427.559" fill="none" stroke-linecap="round" opacity="1" stroke-linejoin="round"/>
<path stroke="#231e20" stroke-width="1" d="M88.0733+429.224C88.0733+431.01+89.6599+432.461+91.6247+432.472L441.961+434.206C450.132+434.163+457.42+430.309+461.517+423.835C465.638+417.296+465.567+409.501+461.303+403.027L439.528+369.737C435.097+362.982+426.975+358.781+418.328+358.781L414.493+358.781L389.482+358.781C388.958+360.73+388.434+362.635+387.982+364.367C387.886+364.692+387.767+364.995+387.601+365.277L418.328+365.277C424.474+365.277+430.262+368.265+433.406+373.05L455.158+406.361C458.087+410.8+458.135+416.127+455.3+420.609C452.466+425.091+447.392+427.711+441.699+427.711L441.699+427.689L91.6679+425.976C89.6862+425.965+88.0733+427.423+88.0733+429.224L88.0733+429.224Z" fill="none" stroke-linecap="round" opacity="1" stroke-linejoin="round"/>
<path stroke="#231e20" stroke-width="1" d="" fill="none" stroke-linecap="round" opacity="1" stroke-linejoin="round"/>
<path stroke="#231e20" stroke-width="1" d="M416.996+347.434L414.497+358.78" fill="none" stroke-linecap="round" opacity="1" stroke-linejoin="round"/>
<path stroke="#231e20" stroke-width="1" d="M268.441+340.501L268.441+358.78" fill="none" stroke-linecap="round" opacity="1" stroke-linejoin="round"/>
<path stroke="#231e20" stroke-width="1" d="M234.155+338.954L243.307+358.78" fill="none" stroke-linecap="round" opacity="1" stroke-linejoin="round"/>
<path stroke="#231e20" stroke-width="1" d="M241.438+339.282L245.587+349.641" fill="none" stroke-linecap="round" opacity="1" stroke-linejoin="round"/>
<g opacity="1">
<g opacity="1">
<g opacity="1">
<path stroke="#231e20" stroke-width="1" d="M205.7+462.814C205.7+477.967+192.18+490.257+175.49+490.257C158.819+490.257+145.299+477.967+145.299+462.814C145.299+451.253+153.165+441.364+164.278+437.327L164.278+461.248C164.278+466.886+169.307+471.457+175.49+471.457C181.692+471.457+186.721+466.886+186.721+461.248L186.721+437.345C197.834+441.382+205.7+451.253+205.7+462.814Z" fill="none" stroke-linecap="round" opacity="1" stroke-linejoin="round"/>
<path stroke="#231e20" stroke-width="1" d="M192.649+462.814C192.649+471.422+184.979+478.412+175.49+478.412C166.019+478.412+158.349+471.422+158.349+462.814C158.349+458.1+160.639+453.885+164.278+451.022L164.278+461.248C164.278+466.886+169.307+471.457+175.49+471.457C181.692+471.457+186.721+466.886+186.721+461.248L186.721+451.022C190.36+453.885+192.649+458.1+192.649+462.814Z" fill="none" stroke-linecap="round" opacity="1" stroke-linejoin="round"/>
<path stroke="#231e20" stroke-width="1" d="M186.721+432.916L186.721+461.248C186.721+466.886+181.692+471.457+175.49+471.457C169.307+471.457+164.278+466.886+164.278+461.248L164.278+432.916L186.721+432.916Z" fill="none" stroke-linecap="round" opacity="1" stroke-linejoin="round"/>
<path stroke="#231e20" stroke-width="1" d="M171.061+460.612C171.061+458.384+173.048+456.578+175.499+456.578C177.95+456.578+179.937+458.384+179.937+460.612C179.937+462.84+177.95+464.646+175.499+464.646C173.048+464.646+171.061+462.84+171.061+460.612Z" fill="none" stroke-linecap="round" opacity="1" stroke-linejoin="round"/>
</g>
<path stroke="#231e20" stroke-width="1" d="M168.872+433.357L168.872+444.677" fill="none" stroke-linecap="round" opacity="1" stroke-linejoin="round"/>
</g>
<g opacity="1">
<path stroke="#231e20" stroke-width="1" d="M188.14+432.925L203.861+432.925C205.219+435.935+205.981+439.204+205.981+442.668C205.981+446.23+205.186+449.624+203.749+452.712" fill="none" stroke-linecap="round" opacity="1" stroke-linejoin="round"/>
<path stroke="#231e20" stroke-width="1" d="M149.871+448.29C149.428+446.48+149.194+444.599+149.194+442.668C149.194+439.226+149.933+435.935+151.314+432.925L167.035+432.925" fill="none" stroke-linecap="round" opacity="1" stroke-linejoin="round"/>
<path stroke="#231e20" stroke-width="1" d="M189.593+432.925C191.658+434.992+193.046+437.566+193.526+440.418" fill="none" stroke-linecap="round" opacity="1" stroke-linejoin="round"/>
<path stroke="#231e20" stroke-width="1" d="M162.325+437.94C162.8+436.684+163.46+435.505+164.278+434.426" fill="none" stroke-linecap="round" opacity="1" stroke-linejoin="round"/>
<path stroke="#231e20" stroke-width="1" d="M173.421+440.602C173.421+438.507+175.289+436.81+177.593+436.81C179.897+436.81+181.764+438.507+181.764+440.602C181.764+442.696+179.897+444.394+177.593+444.394C175.289+444.394+173.421+442.696+173.421+440.602Z" fill="none" stroke-linecap="round" opacity="1" stroke-linejoin="round"/>
</g>
</g>
<g opacity="1">
<g opacity="1">
<g opacity="1">
<path stroke="#231e20" stroke-width="1" d="M345.737+463.836C345.737+478.99+359.257+491.28+375.947+491.28C392.618+491.28+406.138+478.99+406.138+463.836C406.138+452.276+398.272+442.387+387.159+438.35L387.159+462.271C387.159+467.909+382.13+472.48+375.947+472.48C369.745+472.48+364.716+467.909+364.716+462.271L364.716+438.367C353.603+442.405+345.737+452.276+345.737+463.836Z" fill="none" stroke-linecap="round" opacity="1" stroke-linejoin="round"/>
<path stroke="#231e20" stroke-width="1" d="M358.788+463.836C358.788+472.445+366.458+479.434+375.947+479.434C385.417+479.434+393.087+472.445+393.087+463.836C393.087+459.123+390.798+454.908+387.159+452.045L387.159+462.271C387.159+467.909+382.13+472.48+375.947+472.48C369.745+472.48+364.716+467.909+364.716+462.271L364.716+452.045C361.077+454.908+358.788+459.123+358.788+463.836Z" fill="none" stroke-linecap="round" opacity="1" stroke-linejoin="round"/>
<path stroke="#231e20" stroke-width="1" d="M364.716+433.939L364.716+462.271C364.716+467.909+369.745+472.48+375.947+472.48C382.13+472.48+387.159+467.909+387.159+462.271L387.159+433.939L364.716+433.939Z" fill="none" stroke-linecap="round" opacity="1" stroke-linejoin="round"/>
<path stroke="#231e20" stroke-width="1" d="M371.5+461.635C371.5+459.407+373.487+457.601+375.938+457.601C378.389+457.601+380.375+459.407+380.375+461.635C380.375+463.863+378.389+465.669+375.938+465.669C373.487+465.669+371.5+463.863+371.5+461.635Z" fill="none" stroke-linecap="round" opacity="1" stroke-linejoin="round"/>
</g>
<path stroke="#231e20" stroke-width="1" d="M382.565+434.38L382.565+445.7" fill="none" stroke-linecap="round" opacity="1" stroke-linejoin="round"/>
</g>
<g opacity="1">
<path stroke="#231e20" stroke-width="1" d="M363.297+433.948L347.576+433.948C346.218+436.957+345.456+440.227+345.456+443.691C345.456+447.253+346.251+450.647+347.688+453.735" fill="none" stroke-linecap="round" opacity="1" stroke-linejoin="round"/>
<path stroke="#231e20" stroke-width="1" d="M401.566+449.313C402.009+447.503+402.242+445.622+402.242+443.691C402.242+440.248+401.504+436.957+400.122+433.948L384.401+433.948" fill="none" stroke-linecap="round" opacity="1" stroke-linejoin="round"/>
<path stroke="#231e20" stroke-width="1" d="M361.844+433.948C359.778+436.015+358.391+438.589+357.91+441.441" fill="none" stroke-linecap="round" opacity="1" stroke-linejoin="round"/>
<path stroke="#231e20" stroke-width="1" d="M389.112+438.963C388.637+437.707+387.976+436.528+387.159+435.449" fill="none" stroke-linecap="round" opacity="1" stroke-linejoin="round"/>
<path stroke="#231e20" stroke-width="1" d="M369.672+441.624C369.672+439.53+371.54+437.833+373.844+437.833C376.148+437.833+378.016+439.53+378.016+441.624C378.016+443.719+376.148+445.416+373.844+445.416C371.54+445.416+369.672+443.719+369.672+441.624Z" fill="none" stroke-linecap="round" opacity="1" stroke-linejoin="round"/>
</g>
</g>
<path d="M586.895+63.1843L513.529+85.4212C511.528+86.0274+509.384+85.0098+508.765+83.1909L508.432+82.1949L504.668+70.8059L503.358+66.8652L500.476+58.161L499.904+56.4288C499.332+54.675+500.381+52.8345+502.286+52.2283L574.461+29.7533C576.533+29.1038+578.653+28.8006+580.749+28.8006C588.467+28.8006+595.732+33.0011+598.757+39.8649C602.925+49.3053+597.494+59.9798+586.895+63.1843Z" opacity="1" fill="#ff5b19"/>
<path d="M586.895+63.1843L513.529+85.4212C511.528+86.0274+509.384+85.0098+508.765+83.1909L508.432+82.1949L504.668+70.8059L503.358+66.8652L500.476+58.161L499.904+56.4288C499.332+54.675+500.381+52.8345+502.286+52.2283L574.461+29.7533C576.533+29.1038+578.653+28.8006+580.749+28.8006C588.467+28.8006+595.732+33.0011+598.757+39.8649C602.925+49.3053+597.494+59.9798+586.895+63.1843Z" opacity="1" fill="#ff5b19"/>
<path stroke="#231e20" stroke-width="1" d="M247.581+355.294L248.929+358.78" fill="none" stroke-linecap="round" opacity="1" stroke-linejoin="round"/>
<path stroke="#231e20" stroke-width="1" d="" fill="none" stroke-linecap="round" opacity="1" stroke-linejoin="round"/>
<path stroke="#231e20" stroke-width="1" d="M47.3491+491.28L511.555+491.28" fill="none" stroke-linecap="round" opacity="1" stroke-linejoin="round"/>
<path stroke="#231e20" stroke-width="1" d="M36.2512+491.28L28.6421+491.28" fill="none" stroke-linecap="round" opacity="1" stroke-linejoin="round"/>
<path stroke="#231e20" stroke-width="1" d="M18.3074+491.28L-3.62504+491.28" fill="none" stroke-linecap="round" opacity="1" stroke-linejoin="round"/>
<path stroke="#231e20" stroke-width="1" d="M145.628+504.66L279.375+504.66" fill="none" stroke-linecap="round" opacity="1" stroke-linejoin="round"/>
<path stroke="#231e20" stroke-width="1" d="M294.134+504.66L304.07+504.66" fill="none" stroke-linecap="round" opacity="1" stroke-linejoin="round"/>
<path stroke="#231e20" stroke-width="1" d="M521.706+491.28L530.984+491.28" fill="none" stroke-linecap="round" opacity="1" stroke-linejoin="round"/>
<path stroke="#231e20" stroke-width="1" d="M500.12+504.66L429.919+504.66" fill="none" stroke-linecap="round" opacity="1" stroke-linejoin="round"/>
<path stroke="#231e20" stroke-width="1" d="M420.21+504.66L412.413+504.66" fill="none" stroke-linecap="round" opacity="1" stroke-linejoin="round"/>
</g>
<path stroke="#ff5b19" stroke-width="7" d="M240.129-2.95653L241.997+42.3393" fill="none" stroke-linecap="butt" opacity="1" stroke-linejoin="miter"/>
<path stroke="#ff5b19" stroke-width="7" d="M351.392+6.33179L324.977+46.9847" fill="none" stroke-linecap="butt" opacity="1" stroke-linejoin="miter"/>
<path stroke="#ff5b19" stroke-width="7" d="M135.222+12.4846L165.574+51.5217" fill="none" stroke-linecap="butt" opacity="1" stroke-linejoin="miter"/>
</g>
</svg>
